<?xml version="1.0" encoding="utf-8"?>
<!-- Generator: Adobe Illustrator 19.2.1, SVG Export Plug-In . SVG Version: 6.00 Build 0)  -->
<svg version="1.1" id="Ebene_1" xmlns="http://www.w3.org/2000/svg" xmlns:xlink="http://www.w3.org/1999/xlink" x="0px" y="0px"
	 viewBox="0 0 468.68 178.09" style="enable-background:new 0 0 468.68 178.09;" xml:space="preserve">
	<style>
		.rect1 {
			fill:none;
			stroke: #000000;
			stroke-width:2.0605;
			stroke-miterlimit:10;
			/* opacity:0.3;
		    animation-name: rect1-ani;
			animation-duration: 3.5s;
			animation-delay: 2.5s;
		}
		@keyframes rect1-ani {
			0% {opacity:0;}
			100 % {opacity:0.5;} */
		}
	</style>
<rect width="468.666" height="178.092" style="fill:#FFFFFF"/>
<rect class="rect1" x="52.467" y="37.149" width="374.2" height="116.929">
	<!-- <animate
		id="rect1_fade_in"
		attributeName="opacity"
		from="0"
		to="1"
		dur="1.5s"
		begin="0.5s"
		fill="freeze"
		/> -->
</rect>
		
<rect x="42.971" y="27" style="fill:none;stroke:#000000;stroke-width:2.0605;stroke-miterlimit:10;" width="374.201" height="116.929">
	<!-- <animate
		id="rect2_fade_in"
		attributeName="opacity"
		from="0"
		to="1"
		dur="1s"
		begin="1s"
		fill="freeze"
	/> -->
</rect>
<g style="opacity:1">
	<path style="fill:#000000;stroke:#000000;stroke-width:0.5926;stroke-miterlimit:10;" d="M113.49,83.628v6.839h6.467v0.851
		h-6.467v7.691h-0.758V82.776h9.514v0.851H113.49z"/>
	<path style="fill:#000000;stroke:#000000;stroke-width:0.5926;stroke-miterlimit:10;" d="M130.687,99.009V82.776h0.76v15.381
		h6.465v0.851H130.687z"/>
	<path style="fill:#000000;stroke:#000000;stroke-width:0.5926;stroke-miterlimit:10;" d="M146.951,83.628v6.839h6.466v0.851
		h-6.466v6.839h8.756v0.851h-9.515V82.776h9.515v0.851H146.951z"/>
	<path style="fill:#000000;stroke:#000000;stroke-width:0.5926;stroke-miterlimit:10;" d="M169.609,99.009
		c-0.681,0-1.321-0.145-1.922-0.436c-0.598-0.29-1.123-0.687-1.576-1.195c-0.452-0.508-0.806-1.098-1.065-1.769
		c-0.26-0.672-0.389-1.391-0.389-2.155V82.776h0.76v10.678c0,0.659,0.108,1.27,0.324,1.839c0.219,0.565,0.517,1.065,0.899,1.492
		c0.382,0.427,0.824,0.766,1.331,1.009c0.504,0.244,1.051,0.364,1.638,0.364c0.576,0,1.116-0.12,1.622-0.364
		c0.504-0.244,0.949-0.582,1.33-1.009c0.38-0.427,0.681-0.927,0.899-1.492c0.216-0.569,0.326-1.18,0.326-1.839V82.776h0.775
		v10.678c0,0.764-0.129,1.483-0.388,2.155c-0.258,0.671-0.614,1.261-1.065,1.769c-0.453,0.508-0.979,0.905-1.578,1.195
		C170.931,98.864,170.289,99.009,169.609,99.009z"/>
	<path style="fill:#000000;stroke:#000000;stroke-width:0.5926;stroke-miterlimit:10;" d="M192.812,99.009l-3.436-7.691h-5.091
		v7.691h-0.759V82.776h6.098c0.517,0,1.006,0.111,1.47,0.335c0.465,0.225,0.869,0.533,1.217,0.921
		c0.344,0.388,0.619,0.841,0.818,1.355c0.201,0.512,0.299,1.067,0.299,1.66c0,0.54-0.082,1.047-0.247,1.522
		c-0.165,0.474-0.393,0.9-0.685,1.277c-0.296,0.374-0.635,0.691-1.023,0.949c-0.387,0.254-0.812,0.423-1.269,0.502l3.436,7.712
		H192.812z M184.285,90.467h5.34c0.41,0,0.801-0.087,1.17-0.265c0.369-0.178,0.693-0.422,0.971-0.733
		c0.276-0.311,0.492-0.671,0.65-1.087c0.16-0.414,0.239-0.86,0.239-1.334c0-0.475-0.079-0.919-0.239-1.335
		c-0.158-0.415-0.374-0.777-0.65-1.086c-0.277-0.311-0.601-0.555-0.971-0.733c-0.369-0.178-0.76-0.265-1.17-0.265h-5.34V90.467z"
		/>
	<path style="fill:#000000;stroke:#000000;stroke-width:0.5926;stroke-miterlimit:10;" d="M206.38,99.009h-1.023
		c-0.374,0-0.743-0.039-1.1-0.118c-0.359-0.081-0.694-0.189-1.005-0.327c-0.312-0.138-0.594-0.302-0.844-0.494
		c-0.254-0.192-0.469-0.404-0.645-0.642l-0.264-0.337l0.617-0.533l0.211,0.316c0.283,0.383,0.704,0.689,1.259,0.92
		c0.558,0.231,1.155,0.353,1.788,0.364h1.324c0.468,0,0.894-0.064,1.276-0.196c0.382-0.132,0.689-0.31,0.925-0.533
		c0.317-0.304,0.567-0.659,0.748-1.067c0.183-0.409,0.292-0.832,0.327-1.267c0.034-0.435-0.004-0.869-0.114-1.304
		c-0.112-0.434-0.304-0.831-0.573-1.187c-0.13-0.171-0.332-0.322-0.608-0.454c-0.276-0.132-0.584-0.247-0.925-0.344
		c-0.343-0.102-0.691-0.185-1.047-0.259c-0.36-0.073-0.685-0.148-0.98-0.227c-0.328-0.08-0.654-0.159-0.977-0.237
		c-0.322-0.081-0.631-0.178-0.924-0.297c-0.296-0.119-0.567-0.262-0.821-0.426c-0.253-0.164-0.468-0.367-0.644-0.604
		c-0.34-0.422-0.581-0.897-0.722-1.424c-0.14-0.526-0.194-1.079-0.157-1.661c0.093-1.172,0.547-2.147,1.357-2.924
		c0.316-0.279,0.7-0.502,1.154-0.673c0.452-0.171,0.947-0.269,1.488-0.297h1.393c0.762,0.028,1.462,0.182,2.097,0.465
		c0.633,0.284,1.139,0.669,1.515,1.158l0.265,0.297l-0.617,0.572l-0.264-0.296c-0.27-0.395-0.678-0.712-1.224-0.95
		c-0.546-0.237-1.138-0.369-1.771-0.394H205.5c-0.447,0.025-0.857,0.104-1.233,0.238c-0.376,0.131-0.694,0.308-0.951,0.533
		c-0.306,0.302-0.55,0.655-0.731,1.057c-0.183,0.401-0.297,0.835-0.344,1.295c-0.025,0.435,0.022,0.869,0.141,1.305
		c0.117,0.435,0.305,0.83,0.563,1.187c0.13,0.156,0.332,0.299,0.608,0.425c0.276,0.126,0.584,0.234,0.926,0.325
		c0.341,0.095,0.69,0.178,1.048,0.259c0.359,0.078,0.691,0.149,0.995,0.216c0.329,0.08,0.655,0.163,0.978,0.247
		c0.322,0.088,0.631,0.189,0.924,0.307c0.296,0.118,0.566,0.256,0.812,0.415c0.246,0.157,0.459,0.357,0.635,0.593
		c0.329,0.461,0.565,0.964,0.714,1.511c0.147,0.549,0.2,1.092,0.158,1.633c-0.041,0.54-0.174,1.064-0.397,1.57
		c-0.223,0.509-0.535,0.945-0.934,1.315c-0.657,0.607-1.561,0.923-2.711,0.949H206.38z"/>
	<path style="fill:#000000;stroke:#000000;stroke-width:0.5926;stroke-miterlimit:10;" d="M234.517,99.009h-2.66V82.776h2.66
		c0.998,0,1.939,0.215,2.82,0.642c0.88,0.429,1.646,1.008,2.298,1.741c0.654,0.731,1.169,1.591,1.553,2.579
		c0.38,0.989,0.57,2.045,0.57,3.165s-0.191,2.171-0.57,3.153c-0.383,0.982-0.899,1.839-1.553,2.57
		c-0.652,0.732-1.418,1.312-2.298,1.741C236.456,98.796,235.515,99.009,234.517,99.009z M232.617,98.158h1.901
		c0.893,0,1.731-0.187,2.511-0.562c0.781-0.377,1.466-0.894,2.052-1.553c0.586-0.66,1.051-1.427,1.394-2.303
		c0.339-0.876,0.511-1.821,0.511-2.837c0-1.002-0.171-1.944-0.511-2.828c-0.343-0.883-0.807-1.655-1.394-2.314
		c-0.586-0.657-1.272-1.179-2.052-1.561c-0.781-0.382-1.618-0.572-2.511-0.572h-1.901V98.158z"/>
	<path style="fill:#000000;stroke:#000000;stroke-width:0.5926;stroke-miterlimit:10;" d="M251.045,83.628v6.839h6.467v0.851
		h-6.467v6.839h8.758v0.851h-9.515V82.776h9.515v0.851H251.045z"/>
	<path style="fill:#000000;stroke:#000000;stroke-width:0.5926;stroke-miterlimit:10;" d="M287.43,82.776
		c0.516,0,1.005,0.111,1.47,0.335c0.465,0.225,0.869,0.533,1.217,0.921c0.344,0.388,0.62,0.841,0.818,1.355
		c0.201,0.512,0.3,1.067,0.3,1.66c0,0.593-0.099,1.146-0.3,1.66c-0.198,0.514-0.473,0.967-0.818,1.355
		c-0.348,0.389-0.752,0.694-1.217,0.919c-0.464,0.226-0.954,0.337-1.47,0.337h-5.34v7.691h-0.759V82.776H287.43z M287.43,90.467
		c0.41,0,0.8-0.087,1.171-0.265c0.369-0.178,0.692-0.422,0.97-0.733c0.276-0.311,0.491-0.671,0.65-1.087
		c0.159-0.414,0.238-0.86,0.238-1.334c0-0.475-0.079-0.919-0.238-1.335c-0.159-0.415-0.374-0.777-0.65-1.086
		c-0.277-0.311-0.601-0.555-0.97-0.733c-0.371-0.178-0.761-0.265-1.171-0.265h-5.34v6.839H287.43z"/>
	<path style="fill:#000000;stroke:#000000;stroke-width:0.5926;stroke-miterlimit:10;" d="M304.556,82.776
		c0.668,0,1.309,0.148,1.92,0.445s1.136,0.692,1.577,1.186c0.44,0.494,0.791,1.08,1.056,1.76c0.265,0.679,0.397,1.399,0.397,2.164
		v2.136v0.851v7.691h-0.775v-7.691h-8.369v7.691h-0.759v-7.691v-0.851v-2.136c0-0.765,0.129-1.485,0.389-2.164
		c0.26-0.68,0.609-1.266,1.056-1.76c0.447-0.494,0.971-0.889,1.577-1.186C303.232,82.925,303.875,82.776,304.556,82.776z
		 M308.732,90.467v-2.136c0-0.646-0.11-1.254-0.327-1.828c-0.217-0.572-0.518-1.071-0.897-1.494
		c-0.383-0.42-0.827-0.756-1.332-1.008c-0.503-0.25-1.044-0.374-1.62-0.374s-1.12,0.124-1.63,0.374
		c-0.512,0.252-0.957,0.587-1.341,1.008c-0.38,0.423-0.68,0.922-0.897,1.494c-0.217,0.574-0.325,1.183-0.325,1.828v2.136H308.732z
		"/>
	<path style="fill:#000000;stroke:#000000;stroke-width:0.5926;stroke-miterlimit:10;" d="M327.74,99.009l-3.434-7.691h-5.092
		v7.691h-0.758V82.776h6.098c0.516,0,1.007,0.111,1.471,0.335c0.463,0.225,0.867,0.533,1.217,0.921
		c0.344,0.388,0.618,0.841,0.816,1.355c0.201,0.512,0.3,1.067,0.3,1.66c0,0.54-0.081,1.047-0.247,1.522
		c-0.164,0.474-0.392,0.9-0.685,1.277c-0.295,0.374-0.636,0.691-1.023,0.949c-0.387,0.254-0.811,0.423-1.268,0.502l3.436,7.712
		H327.74z M319.214,90.467h5.34c0.41,0,0.8-0.087,1.171-0.265c0.369-0.178,0.692-0.422,0.97-0.733
		c0.276-0.311,0.493-0.671,0.65-1.087c0.159-0.414,0.24-0.86,0.24-1.334c0-0.475-0.081-0.919-0.24-1.335
		c-0.157-0.415-0.375-0.777-0.65-1.086c-0.277-0.311-0.6-0.555-0.97-0.733c-0.371-0.178-0.761-0.265-1.171-0.265h-5.34V90.467z"/>
	<path style="fill:#000000;stroke:#000000;stroke-width:0.5926;stroke-miterlimit:10;" d="M336.729,99.009V82.776h0.758v16.233
		H336.729z"/>
	<path style="fill:#000000;stroke:#000000;stroke-width:0.5926;stroke-miterlimit:10;" d="M350.983,99.009h-1.023
		c-0.376,0-0.744-0.039-1.102-0.118c-0.357-0.081-0.692-0.189-1.003-0.327c-0.311-0.138-0.594-0.302-0.846-0.494
		c-0.253-0.192-0.468-0.404-0.643-0.642l-0.263-0.337l0.615-0.533l0.212,0.316c0.283,0.383,0.703,0.689,1.259,0.92
		c0.558,0.231,1.155,0.353,1.789,0.364h1.321c0.47,0,0.896-0.064,1.277-0.196c0.383-0.132,0.689-0.31,0.926-0.533
		c0.318-0.304,0.567-0.659,0.747-1.067c0.184-0.409,0.293-0.832,0.329-1.267c0.034-0.435-0.004-0.869-0.115-1.304
		c-0.113-0.434-0.304-0.831-0.574-1.187c-0.129-0.171-0.33-0.322-0.608-0.454c-0.276-0.132-0.585-0.247-0.924-0.344
		c-0.343-0.102-0.691-0.185-1.049-0.259c-0.358-0.073-0.684-0.148-0.979-0.227c-0.329-0.08-0.654-0.159-0.977-0.237
		c-0.323-0.081-0.632-0.178-0.926-0.297c-0.295-0.119-0.565-0.262-0.82-0.426c-0.253-0.164-0.466-0.367-0.645-0.604
		c-0.339-0.422-0.579-0.897-0.721-1.424c-0.14-0.526-0.194-1.079-0.157-1.661c0.092-1.172,0.546-2.147,1.355-2.924
		c0.318-0.279,0.701-0.502,1.155-0.673c0.452-0.171,0.949-0.269,1.489-0.297h1.392c0.761,0.028,1.463,0.182,2.098,0.465
		c0.632,0.284,1.138,0.669,1.512,1.158l0.267,0.297l-0.618,0.572l-0.263-0.296c-0.27-0.395-0.678-0.712-1.226-0.95
		c-0.546-0.237-1.136-0.369-1.77-0.394h-1.374c-0.447,0.025-0.857,0.104-1.235,0.238c-0.374,0.131-0.692,0.308-0.95,0.533
		c-0.306,0.302-0.549,0.655-0.731,1.057c-0.184,0.401-0.295,0.835-0.343,1.295c-0.025,0.435,0.023,0.869,0.14,1.305
		c0.118,0.435,0.307,0.83,0.565,1.187c0.129,0.156,0.33,0.299,0.606,0.425c0.275,0.126,0.585,0.234,0.926,0.325
		c0.341,0.095,0.691,0.178,1.049,0.259c0.358,0.078,0.689,0.149,0.996,0.216c0.327,0.08,0.654,0.163,0.977,0.247
		c0.322,0.088,0.631,0.189,0.924,0.307c0.295,0.118,0.565,0.256,0.811,0.415c0.247,0.157,0.459,0.357,0.636,0.593
		c0.329,0.461,0.565,0.964,0.714,1.511c0.147,0.549,0.2,1.092,0.157,1.633c-0.041,0.54-0.173,1.064-0.396,1.57
		c-0.224,0.509-0.535,0.945-0.934,1.315c-0.657,0.607-1.562,0.923-2.713,0.949H350.983z"/>
		<animate 
		attributeName="opacity"
		from="0"
		to="1"
		dur="2s"
		begin="rect2_fade_in.end"
		fill="freeze"
	/>
</g>
</svg>